# AST/ASF file generated using VICON BodyLanguage
# -----------------------------------------------
:version 1.10
:name VICON
:units
  mass 1.0
  length 0.45
  angle deg
:documentation
   .ast/.asf automatically generated from VICON data using
   VICON BodyBuilder and BodyLanguage model FoxedUp or BRILLIANT.MOD
:root
   order TX TY TZ RX RY RZ
   axis XYZ
   position 0 0 0  
   orientation 0 0 0 
:bonedata
  begin
     id 1 
     name lhipjoint
     direction 0.577973 -0.728611 0.367523 
     length 2.48544 
     axis 0 0 0  XYZ
  end
  begin
     id 2 
     name lfemur
     direction 0.34202 -0.939693 0  
     length 7.1921  
     axis 0 0 20  XYZ
    dof rx ry rz
    limits (-160.0 20.0)
           (-70.0 70.0)
           (-60.0 70.0)
  end
  begin
     id 3 
     name ltibia
     direction 0.34202 -0.939693 0   
     length 7.71059   
     axis 0 0 20   XYZ
    dof rx
    limits (-10.0 170.0)
  end
  begin
     id 4 
     name lfoot
     direction 0.089538 -0.246004 0.965124   
     length 2.19909   
     axis -90 7.62852e-016 20   XYZ
    dof rx rz
    limits (-45.0 90.0)
           (-70.0 20.0)
  end
  begin
     id 5 
     name ltoes
     direction 1.53544e-011 -4.21829e-011 1   
     length 1.10116   
     axis -90 7.62852e-016 20   XYZ
    dof rx
    limits (-90.0 20.0)
  end
  begin
     id 6 
     name rhipjoint
     direction -0.554414 -0.743062 0.374812   
     length 2.4371  
     axis 0 0 0  XYZ 
  end
  begin
     id 7 
     name rfemur
     direction -0.34202 -0.939693 0   
     length 7.47254   
     axis 0 0 -20   XYZ
    dof rx ry rz
    limits (-160.0 20.0)
           (-70.0 70.0)
           (-70.0 60.0)
  end
  begin
     id 8 
     name rtibia
     direction -0.34202 -0.939693 0   
     length 7.65855   
     axis 0 0 -20   XYZ
    dof rx
    limits (-10.0 170.0)
 end
 begin
     id 9 
     name rfoot
     direction -0.133779 -0.367555 0.92033   
     length 2.43006  
     axis -90 -7.62852e-016 -20   XYZ
    dof rx rz
    limits (-45.0 90.0)
           (-20.0 70.0)
  end
  begin
     id 10 
     name rtoes
     direction -1.53563e-011 -4.21889e-011 1   
     length 1.19625   
     axis -90 -7.62852e-016 -20   XYZ
    dof rx
    limits (-90.0 20.0)
  end
  begin
     id 11 
     name lowerback
     direction 0.0249066 0.998043 -0.0573585   
     length 2.08485   
     axis 0 0 0   XYZ
    dof rx ry rz
    limits (-20.0 45.0)
           (-30.0 30.0)
           (-30.0 30.0)
  end
  begin
     id 12 
     name upperback
     direction 0.0237884 0.999673 0.00943178   
     length 2.08515   
     axis 0 0 0   XYZ
    dof rx ry rz
    limits (-20.0 45.0)
           (-30.0 30.0)
           (-30.0 30.0)
  end
  begin
     id 13 
     name thorax
     direction 0.0106671 0.999301 0.0358174   
     length 2.09037   
     axis 0 0 0   XYZ
    dof rx ry rz
    limits (-20.0 45.0)
           (-30.0 30.0)
           (-30.0 30.0)
  end
  begin
     id 14 
     name lowerneck
     direction -0.0580016 0.987052 0.149546   
     length 1.84454   
     axis 0 0 0   XYZ
    dof rx ry rz
    limits (-20.0 45.0)
           (-30.0 30.0)
           (-30.0 30.0)
  end
  begin
     id 15 
     name upperneck
     direction 0.079456 0.981963 -0.171567   
     length 1.88141   
     axis 0 0 0   XYZ
    dof rx ry rz
    limits (-20.0 45.0)
           (-30.0 30.0)
           (-30.0 30.0)
  end
  begin
     id 16
     name head
     direction 0.0262167 0.9967 -0.0768276  
     length 1.89541  
     axis 0 0 0   XYZ
    dof rx ry rz
    limits (-20.0 45.0)
           (-30.0 30.0)
           (-30.0 30.0)
  end
  begin
     id 17 
     name lclavicle
     direction 0.946135 0.322134 -0.0325326  
     length 3.949  
     axis 0 0 0   XYZ
    dof ry rz
    limits (-20.0 10.0)
           (0.0 20.0)
  end
  begin
     id 18 
     name lhumerus
     direction 1 -4.48964e-011 1.94005e-028   
     length 5.10995   
     axis 180 -30 -90   XYZ
    dof rx ry rz
    limits (-60.0 90.0)
           (-90.0 90.0)
           (-90.0 90.0)
  end
  begin
     id 19
     name lradius
     direction 1 -4.48976e-011 2.87852e-027   
     length 3.21207   
     axis 180 -30 -90   XYZ
    dof rx
    limits (-10.0 170.0)
  end
  begin
     id 20
     name lwrist
     direction 1 -4.48963e-011 1.9975e-027   
     length 1.60604   
     axis 2.96054e-016 90 90   XYZ
    dof ry
    limits (-180.0 0.0)
 end
  begin
     id 21 
     name lhand
     direction 1 -4.48919e-011 4.00227e-027   
     length 0.63349   
     axis -2.5488e-015 90 90   XYZ
    dof rx rz
    limits (-90.0 90.0)
           (-45.0 45.0)
  end
  begin
     id 22 
     name lfingers
     direction 1 -4.49037e-011 7.9652e-027   
     length 0.510736   
     axis -5.0975e-015 90 90   XYZ
    dof rx
    limits (0.0 90.0)
  end
  begin
     id 23
     name lthumb
     direction 0.707107 -6.34922e-011 0.707107   
     length 0.733318   
     axis -90 45 -4.48553e-014   XYZ
    dof rx rz
    limits (-45.0 45.0)
           (-45.0 45.0)
  end
  begin
     id 24 
     name rclavicle
     direction -0.940085 0.328911 -0.0897654   
     length 3.93848  
     axis 0 0 0   XYZ 
    dof ry rz
    limits (-10.0 20.0)
           (-20.0 0.0)
  end
  begin
     id 25 
     name rhumerus
     direction -1 -4.48958e-011 3.02044e-027  
     length 5.25109   
     axis 180 30 90   XYZ
    dof rx ry rz
    limits (-90.0 60.0)
           (-90.0 90.0)
           (-90.0 90.0)
  end
  begin
     id 26 
     name rradius
     direction -1 -4.4897e-011 9.78352e-028   
     length 3.28364   
     axis 180 30 90   XYZ
    dof rx
    limits (-10.0 170.0)
  end
  begin
     id 27 
     name rwrist
     direction -1 -4.48943e-011 1.99918e-027   
     length 1.64182   
     axis 2.96054e-016 -90 -90   XYZ
    dof ry
    limits (-180.0 0.0)
  end
  begin
     id 28
     name rhand
     direction -1 -4.49024e-011 3.98478e-027   
     length 0.599745   
     axis -2.5488e-015 -90 -90   XYZ
    dof rx rz
    limits (-90.0 90.0)
           (-45.0 45.0)
  end
  begin
     id 29
     name rfingers
     direction -1 -4.48914e-011 8.00621e-027   
     length 0.48353   
     axis -5.0975e-015 -90 -90   XYZ
    dof rx
    limits (0.0 90.0)
  end
  begin
     id 30
     name rthumb
     direction -0.707107 -6.34992e-011 0.707107   
     length 0.694255   
     axis -90 -45 4.48553e-014   XYZ
    dof rx rz
    limits (-45.0 45.0)
           (-45.0 45.0)
  end
:hierarchy
  begin
    root lhipjoint rhipjoint lowerback
    lhipjoint lfemur
    lfemur ltibia
    ltibia lfoot
    lfoot ltoes
    rhipjoint rfemur
    rfemur rtibia
    rtibia rfoot
    rfoot rtoes
    lowerback upperback
    upperback thorax
    thorax lowerneck lclavicle rclavicle
    lowerneck upperneck
    upperneck head
    lclavicle lhumerus
    lhumerus lradius
    lradius lwrist
    lwrist lhand lthumb
    lhand lfingers
    rclavicle rhumerus
    rhumerus rradius
    rradius rwrist
    rwrist rhand rthumb
    rhand rfingers
  end

#!OML:ASF E:\CV Data\Top Level 1\Subject 1\Session 1\player.ASF
:FULLY-SPECIFIED
:DEGREES
796
root 6.81367 17.0864 -9.71803 125.1 -83.7615 -122.921
lowerback 8.95823 2.45499 3.43882
upperback 0.425699 3.64135 1.32001
thorax -4.44861 1.72749 -1.01217
lowerneck -15.0614 14.1241 -2.92892
upperneck 17.1983 19.3875 2.90668
head 7.13546 9.33447 3.29982
rclavicle -4.26331e-014 -1.55549e-014
rhumerus 140.257 141.238 75.5801
rradius 95.7235
rwrist 3.6719
rhand -34.2563 21.4944
rfingers 7.12502
rthumb -7.42698 -8.35526
lclavicle -4.26331e-014 -1.55549e-014
lhumerus -40.5381 -38.1116 112.396
lradius 94.1363
lwrist 32.2315
lhand -28.6386 18.2613
lfingers 7.12502
lthumb -2.00268 48.2316
rfemur -22.4198 8.94887 30.0043
rtibia 41.9209
rfoot -19.2681 -0.495165
rtoes 14.671
lfemur -23.4865 7.28602 -10.7505
ltibia 45.3338
lfoot -22.9436 1.69221
ltoes -13.5755
797
root 6.86237 17.0843 -9.74137 122.073 -83.869 -119.796
lowerback 9.13649 2.44526 3.50827
upperback 0.500362 3.63923 1.33063
thorax -4.46687 1.72422 -1.04627
lowerneck -15.043 14.0686 -2.89754
upperneck 17.0441 19.317 2.80954
head 7.09806 9.2991 3.25116
rclavicle -2.37486e-014 -6.16232e-015
rhumerus 140.382 141.066 75.6418
rradius 95.6844
rwrist 4.0262
rhand -34.3307 21.6421
rfingers 7.12502
rthumb -7.49876 -8.20499
lclavicle -2.37486e-014 -6.16232e-015
lhumerus -40.3867 -38.0872 112.365
lradius 94.1617
lwrist 32.3149
lhand -28.862 18.1787
lfingers 7.12502
lthumb -2.2184 48.1469
rfemur -22.725 8.68539 30.1437
rtibia 41.9281
rfoot -19.0791 -0.5191
rtoes 14.688
lfemur -23.8796 7.72999 -10.725
ltibia 46.1646
lfoot -23.1308 2.00665
ltoes -13.8664
798
root 6.91096 17.0831 -9.76399 119.143 -83.9854 -116.779
lowerback 9.29829 2.4366 3.55414
upperback 0.576438 3.63519 1.33182
thorax -4.47525 1.72073 -1.07592
lowerneck -15.0203 14.009 -2.87812
upperneck 16.9138 19.2404 2.73216
head 7.06459 9.26118 3.21033
rclavicle -4.55341e-015 -2.20651e-014
rhumerus 140.519 140.877 75.7125
rradius 95.6001
rwrist 4.34866
rhand -34.3932 21.8247
rfingers 7.12502
rthumb -7.55906 -8.02018
lclavicle -4.55341e-015 -2.20651e-014
lhumerus -40.2336 -38.0491 112.335
lradius 94.1604
lwrist 32.4364
lhand -29.1096 18.0615
lfingers 7.12502
lthumb -2.4576 48.0271
rfemur -23.0179 8.42617 30.2427
rtibia 41.9344
rfoot -18.8782 -0.541422
rtoes 14.5639
lfemur -24.209 8.23294 -10.7617
ltibia 47.0703
lfoot -23.225 2.39101
ltoes -13.85
799
root 6.95908 17.0831 -9.78589 116.251 -84.1085 -113.815
lowerback 9.44843 2.42725 3.59325
upperback 0.651229 3.62861 1.31743
thorax -4.47788 1.71623 -1.11708
lowerneck -14.9925 13.9466 -2.85638
upperneck 16.8099 19.1564 2.67306
head 7.03727 9.22071 3.17512
rclavicle 3.8732e-014 2.127e-014
rhumerus 140.672 140.69 75.7855
rradius 95.4662
rwrist 4.66171
rhand -34.4198 22.0401
rfingers 7.12502
rthumb -7.5848 -7.80386
lclavicle 3.8732e-014 2.127e-014
lhumerus -40.1009 -38.0198 112.296
lradius 94.1442
lwrist 32.6159
lhand -29.432 17.9043
lfingers 7.12502
lthumb -2.76888 47.866
rfemur -23.2898 8.16824 30.308
rtibia 41.9322
rfoot -18.6711 -0.56025
rtoes 14.365
lfemur -24.4623 8.76299 -10.8485
ltibia 48.0384
lfoot -23.2353 2.82913
ltoes -13.558
800
root 7.00691 17.0841 -9.80714 113.295 -84.2342 -110.796
lowerback 9.57914 2.41466 3.615
upperback 0.726354 3.61518 1.30513
thorax -4.47074 1.70898 -1.14456
lowerneck -14.9628 13.8841 -2.84793
upperneck 16.7346 19.0744 2.6231
head 7.01664 9.18009 3.14594
rclavicle -1.62631e-014 -5.66536e-015
rhumerus 140.84 140.487 75.8787
rradius 95.2857
rwrist 4.96531
rhand -34.429 22.2874
rfingers 7.12502
rthumb -7.59364 -7.55628
lclavicle -1.62631e-014 -5.66536e-015
lhumerus -39.9735 -37.965 112.274
lradius 94.1028
lwrist 32.8315
lhand -29.6509 17.7182
lfingers 7.12502
lthumb -2.9803 47.6771
rfemur -23.5428 7.90876 30.3494
rtibia 41.9145
rfoot -18.454 -0.580487
rtoes 14.0961
lfemur -24.6438 9.30617 -10.9698
ltibia 49.0537
lfoot -23.137 3.31133
ltoes -13.2024
801
root 7.05429 17.0865 -9.82771 110.151 -84.3499 -107.596
lowerback 9.6887 2.39513 3.63706
upperback 0.801243 3.59177 1.29694
thorax -4.45269 1.6971 -1.16561
lowerneck -14.9339 13.8237 -2.83965
upperneck 16.6878 18.9958 2.5759
head 7.00495 9.14019 3.11966
rclavicle 2.37734e-014 1.4064e-014
rhumerus 141.02 140.275 75.9868
rradius 95.0671
rwrist 5.2462
rhand -34.4203 22.5514
rfingers 7.12502
rthumb -7.58525 -7.29258
lclavicle 2.37734e-014 1.4064e-014
lhumerus -39.864 -37.8969 112.26
lradius 94.0537
lwrist 33.089
lhand -29.8352 17.5034
lfingers 7.12502
lthumb -3.15831 47.4597
rfemur -23.7734 7.64585 30.3835
rtibia 41.8729
rfoot -18.2309 -0.604513
rtoes 13.8244
lfemur -24.7533 9.83254 -11.1009
ltibia 50.1002
lfoot -22.9205 3.80419
ltoes -12.7466
